<svg width="20" height="20" viewBox="0 0 20 20" fill="none" xmlns="http://www.w3.org/2000/svg">
<path d="M16.661 16.009L16.6793 16.0272L16.6993 16.0433L19.254 18.1055L19.3546 18.1867C19.5769 18.5138 19.5443 18.9661 19.2569 19.2565C18.939 19.5779 18.4278 19.5811 18.106 19.2663L15.9975 16.8497L15.9975 16.8497L15.9949 16.8468L15.9253 16.7683C15.8497 16.6684 15.8076 16.5449 15.8076 16.4164C15.8076 16.2622 15.8682 16.1153 15.9743 16.0078C16.1659 15.8188 16.4699 15.8192 16.661 16.009ZM8.57764 0.5C10.7182 0.5 12.7722 1.35944 14.2875 2.89102C15.803 4.42278 16.6553 6.50141 16.6553 8.66993C16.6553 13.1871 13.0338 16.8399 8.57764 16.8399C4.12151 16.8399 0.5 13.1871 0.5 8.66993C0.5 4.15274 4.12151 0.5 8.57764 0.5Z" stroke="white"/>
</svg>
