<svg width="125" height="23" viewBox="0 0 125 23" fill="none" xmlns="http://www.w3.org/2000/svg">
<path fill-rule="evenodd" clip-rule="evenodd" d="M0 15.178V0.000732422H7.88974V2.3407H3.20981V6.2185H7.68987V8.55913H3.20981V15.178H0ZM13.64 14.1082H13.573C12.9714 15.0445 12.1686 15.4456 11.0989 15.4456C9.69451 15.4456 8.42426 14.5764 8.42426 13.1063V4.61426H11.3665V11.9695C11.3665 12.9044 11.567 13.5737 12.5026 13.5737C13.4382 13.5737 13.6394 12.9044 13.6394 11.9695V4.61426H16.5816V13.1056C16.5816 13.7749 16.6487 14.51 16.7151 15.178H13.6394L13.64 14.1082ZM20.5271 4.61426V5.95157C21.0623 4.74839 22.0643 4.34666 23.2682 4.34666V7.02062C20.6606 6.82009 20.6606 8.35793 20.6606 9.42765V15.178H17.652V4.61426H20.5271ZM26.8113 5.68397H26.8784C27.4136 4.68132 28.2157 4.34666 29.3525 4.34666C30.7568 4.34666 32.0271 5.21585 32.0271 6.68663V15.178H29.0185V7.89048C29.0185 6.95422 28.8843 6.2185 27.9487 6.2185C26.9454 6.2185 26.812 6.95356 26.812 7.89048V15.178H23.8697V4.61426H26.812L26.8113 5.68397ZM33.1632 4.61426H36.1054V15.178H33.1632V4.61426ZM33.1632 0.000732422H36.1054V2.3407H33.1632V0.000732422ZM36.5065 4.61426H37.6426V2.87589L40.6512 1.60564V4.61426H42.1891V6.41903H40.6512V12.1029C40.6512 12.9044 40.6512 13.4403 41.5875 13.4403C41.788 13.4403 41.9885 13.4403 42.1227 13.3725V15.178C41.7216 15.2457 41.3205 15.3114 40.5848 15.3114C38.0443 15.3114 37.6426 13.5737 37.6426 12.9721V6.41903H36.5065V4.61426ZM47.873 14.1082H47.8059C47.2714 15.0445 46.4686 15.4456 45.3318 15.4456C43.9281 15.4456 42.6578 14.5764 42.6578 13.1063V4.61426H45.6665V11.9695C45.6665 12.9044 45.7999 13.5737 46.7362 13.5737C47.6724 13.5737 47.873 12.9044 47.873 11.9695V4.61426H50.8145V13.1056C50.8145 13.7749 50.8816 14.51 50.948 15.178H47.873V14.1082ZM55.1604 4.61426V5.95157H55.2275C55.7627 4.74839 56.7653 4.34666 57.9692 4.34666V7.02062C55.3616 6.82009 55.2946 8.35793 55.2946 9.42765V15.178H52.353V4.61426H55.1604Z" fill="white"/>
<path fill-rule="evenodd" clip-rule="evenodd" d="M60.8438 10.3645C60.8438 11.6354 60.8438 13.5066 62.1811 13.5066C63.2508 13.5066 63.452 12.5039 63.452 11.6354H66.4606C66.3929 12.7715 65.9925 13.7078 65.3232 14.3758C64.5881 15.0451 63.5855 15.4455 62.1811 15.4455C58.3703 15.4455 57.8352 13.1062 57.8352 9.76291C57.8352 6.82069 58.2362 4.34726 62.1811 4.34726C66.1924 4.34726 66.5941 6.95482 66.527 10.3645H60.8438ZM63.5177 8.69253C63.5177 7.68921 63.5855 6.21843 62.1804 6.21843C60.7767 6.21843 60.8431 7.82334 60.8431 8.69253H63.5177ZM71.8092 15.1779V0.000663643H77.426C79.8317 0.000663643 81.8384 0.735722 81.8384 3.94487C81.8384 5.68324 80.9692 6.95349 79.2302 7.28815V7.35522C81.5037 7.62215 82.1053 9.09359 82.1053 11.166C82.1053 15.0438 78.7634 15.1779 77.426 15.1779H71.8092ZM74.9513 12.8386H76.7567C77.426 12.8386 78.8968 12.8386 78.8968 10.6985C78.8968 9.36118 78.4287 8.55906 76.8245 8.55906H74.952L74.9513 12.8386ZM74.9513 6.21843H77.0914C77.7594 6.21843 78.7634 5.75031 78.7634 4.27953C78.7634 3.14275 77.9606 2.34063 76.8909 2.34063H74.952L74.9513 6.21843ZM85.582 4.61419V5.9515H85.6498C86.1843 4.74832 87.1876 4.34659 88.3915 4.34659V7.02055C85.7832 6.82002 85.7162 8.35786 85.7162 9.42758V15.1779H82.7746V4.61419H85.582ZM96.9492 13.239C96.9492 13.9083 97.0827 14.5763 97.1491 15.1779H94.341L94.2075 13.7748C93.5382 14.911 92.6697 15.4455 91.3994 15.4455C89.3257 15.4455 88.5907 13.909 88.5907 12.0358C88.5907 8.49266 91.3324 8.35853 94.074 8.4256V7.62281C94.074 6.68722 93.9406 6.01857 92.8709 6.01857C91.8669 6.01857 91.7334 6.82069 91.7334 7.62281H88.8583C88.8583 6.35256 89.26 5.55044 89.928 5.08231C90.5973 4.54779 91.6 4.34726 92.7367 4.34726C96.4811 4.34726 96.9492 6.01923 96.9492 7.95813V13.239ZM91.5336 11.9017C91.5336 12.6367 91.6 13.5736 92.6033 13.5736C94.341 13.5736 94.074 11.233 94.074 10.0962C92.6033 10.1633 91.5336 10.0298 91.5336 11.9017ZM100.694 5.6839H100.76C101.362 4.68125 102.164 4.34659 103.235 4.34659C104.705 4.34659 105.909 5.21578 105.909 6.68656V15.1779H102.965V7.89041C102.965 6.95415 102.765 6.21843 101.829 6.21843C100.893 6.21843 100.693 6.95349 100.693 7.89041V15.1779H97.75V4.61419H100.693V5.6839H100.694ZM112.326 15.1779V14.0418H112.259C111.724 15.0444 110.921 15.4448 109.785 15.4448C106.709 15.4448 106.777 12.0351 106.777 9.82864C106.777 7.68855 106.709 4.34593 109.718 4.34593C110.788 4.34593 111.524 4.67993 112.125 5.61618V0H115.134V15.1772L112.326 15.1779ZM112.125 9.82931C112.125 7.68921 112.193 6.21843 110.989 6.21843C109.652 6.21843 109.718 7.68921 109.718 9.82931C109.718 12.4362 109.919 13.5736 110.989 13.5736C111.992 13.5736 112.125 12.4362 112.125 9.82931ZM119.013 11.7682C118.945 12.3027 119.013 12.7709 119.146 13.1055C119.28 13.4402 119.614 13.5736 120.216 13.5736C120.818 13.5736 121.284 13.1726 121.284 12.5039C121.284 10.2304 116.069 10.7656 116.069 7.35588C116.069 5.08232 118.343 4.34726 120.282 4.34726C122.288 4.34726 124.093 5.35058 123.96 7.62347H121.085C121.085 6.88842 120.951 6.48736 120.75 6.28616C120.549 6.08563 120.349 6.01923 120.015 6.01923C119.346 6.01923 119.012 6.48736 119.012 7.15535C119.012 8.82665 124.227 8.76025 124.227 12.1699C124.227 14.0424 122.689 15.4461 120.216 15.4461C117.674 15.4461 115.937 14.7782 116.07 11.7695H119.013V11.7682ZM0.535278 18.5212H1.47153V22.8671H0.535278V18.5212ZM7.82343 18.5212H9.16007L11.6342 21.8644V18.5212H12.5704V22.8671H11.2331L8.69261 19.4574V22.8671H7.82343V18.5212ZM22.5996 18.5212V19.2569H20.9283V22.8671H19.992V19.2569H18.3201V18.5212H22.5996ZM31.826 19.2569H29.2855V20.2589H31.6925V20.9946H29.2855V22.1978H31.893V22.8671H28.3492V18.5212H31.826V19.2569ZM38.0444 18.5212H40.652C41.5882 18.5212 42.3239 18.8558 42.3239 19.7243C42.3239 20.4594 41.7887 20.7941 41.1208 20.7941V20.8605C42.1234 20.8605 42.1905 21.3286 42.2569 22.1314C42.2569 22.466 42.3239 22.733 42.391 22.8664H41.3213C41.2542 22.733 41.2542 22.4654 41.2542 22.1971C41.1872 21.3279 40.9866 21.1945 40.051 21.1945H38.9813V22.8664H38.0451L38.0444 18.5212ZM38.9807 20.4601H40.2509C40.8525 20.4601 41.3206 20.3923 41.3206 19.8585C41.3206 19.3246 40.8525 19.2569 40.318 19.2569H38.9807V20.4601ZM48.4746 18.5212H49.879L52.3525 21.8644V18.5212H53.2216V22.8671H51.8843L49.3438 19.4574V22.8671H48.4746V18.5212ZM61.1778 18.5212H62.381L64.6545 22.8671H63.4513L62.9832 21.9308H60.4421L59.9739 22.8671H58.9713L61.1778 18.5212ZM62.6492 21.1958L61.713 19.3246L60.8438 21.1958H62.6492ZM74.2162 18.5212V19.2569H72.5443V22.8671H71.608V19.2569H69.9374V18.5212H74.2162ZM80.1 18.5212H81.0349V22.8671H80.1V18.5212ZM89.7281 18.3877C91.3324 18.3877 92.2686 19.1892 92.2686 20.727C92.2686 22.2648 91.3324 23.0006 89.7281 23.0006C88.1225 23.0006 87.1876 22.2655 87.1876 20.727C87.1876 19.1885 88.1225 18.3877 89.7281 18.3877ZM89.7281 22.2655C90.663 22.2655 91.2646 21.731 91.2646 20.7277C91.2646 19.6579 90.663 19.1234 89.7281 19.1234C88.7919 19.1234 88.1903 19.6579 88.1903 20.7277C88.1896 21.731 88.7919 22.2655 89.7281 22.2655ZM98.2865 18.5212H99.6896L102.164 21.8644V18.5212H103.033V22.8671H101.762L99.2214 19.4574H99.155V22.8671H98.2865V18.5212ZM110.989 18.5212H112.259L114.466 22.8671H113.328L112.794 21.9308H110.319L109.852 22.8671H108.782L110.989 18.5212ZM112.46 21.1958L111.524 19.3246L110.654 21.1958H112.46ZM120.217 18.5212H121.152V22.1978H123.559V22.8671H120.217V18.5212Z" fill="white"/>
</svg>
